# xmcd
#
# Track frame offsets:
# 150
# 14784
# 36522
# 55678
# 80495
# 94430
# 111551
# 134751
# 147269
# 162070
#
# Disc length: 2396 seconds
#
#
# Revision: 0
# Processed by: cddbd v1.5.1PL0 Copyright (c) Steve Scherf et al.
# Submitted via: FreeRIP 2.60 
#
DISCID=95095a0a
DTITLE=Scotty Anderson - Classic Scotty
DYEAR=2003
DGENRE=Country
TTITLE0=Going Down This Road Feeling Bad
TTITLE1=LaGrange
TTITLE2=Cold Cold Heart
TTITLE3=We Gotta Get Out Of This Place
TTITLE4=Honey Fingers
TTITLE5=Milk Cow Blues
TTITLE6=Boggie On Reggae Woman
TTITLE7=All My Loving
TTITLE8=Ruby Are You Mad At Your Man
TTITLE9=Candles
EXTD=Generally catagorized as a country player, Scotty \nplays a myriad of syles making it hard to pin him\n to a single genre and similar to that of the late, \ngreat Danny Gatton. He is one of the best guitarists \naround today . \n
EXTT0=
EXTT1=
EXTT2=
EXTT3=
EXTT4=
EXTT5=
EXTT6=
EXTT7=
EXTT8=
EXTT9=
PLAYORDER=
